<?xml version="1.0" encoding="utf-8"?>
<!-- Generator: Adobe Illustrator 22.0.0, SVG Export Plug-In . SVG Version: 6.00 Build 0)  -->
<svg version="1.1" id="Capa_1" xmlns="http://www.w3.org/2000/svg" xmlns:xlink="http://www.w3.org/1999/xlink" x="0px" y="0px"
	 viewBox="0 0 800 800" style="enable-background:new 0 0 800 800;" xml:space="preserve">
<style type="text/css">
	.st0{fill:#29332B;}
	.st1{fill:#BC0488;}
</style>
<path d="M259.6,155.2c35.8,0,65-17,80.3-32.9c5.7-5.9,7.3-14.6,4.1-22.1c-3.2-7.5-10.6-12.4-18.8-12.4H194
	c-8.2,0-15.6,4.9-18.8,12.4c-3.2,7.5-1.6,16.2,4.1,22.1C194.7,138.2,223.8,155.2,259.6,155.2z"/>
<path class="st0" d="M530.6,214.4V51.1h24.5c10.9,0,19.7-9.1,19.7-20.4s-8.8-20.4-19.7-20.4H426.4c-10.9,0-19.7,9.1-19.7,20.4
	s8.8,20.4,19.7,20.4h64.8v53.7c-123.4,16.9-219.8,70.6-287.1,160.1c-72.7,96.7-96.2,217.6-103.3,302c-0.2,2.6-0.3,5.3-0.5,7.9
	C52.2,585.2,16,629.5,16,682.4c0,60.7,47.7,110.1,106.4,110.1s106.4-49.4,106.4-110.1c0-54.5-38.4-99.8-88.6-108.5
	c7-87.2,29.7-197.1,95.1-284c59.7-79.4,145.7-127.8,256-144v68.2C346.8,223.6,229.7,349.5,229.7,503
	c0,159.6,125.7,289.5,279.9,289.5S789,662.6,789,503C789,350.9,675.1,225.9,530.6,214.4z"/>
<path class="st1" d="M192.5,655c0,39.5-33.2,71.3-73.1,69.2c-35.1-1.9-63.6-30.3-65.4-65.4c-1.7-31,17.2-58,44.2-68.4
	c-1.7,64.1,5.2,78.2,5.5,80.4c1.5,10.2,10.2,17.5,20.2,17.5c1,0,1.9-0.1,2.9-0.2c11.1-1.6,18.9-11.9,17.3-23.1
	c-0.2-1.1-6.8-14.7-4.8-77.4C169.7,594.8,192.5,622.3,192.5,655z"/>
<path id="XMLID_1_" class="st1" d="M509.1,728.3c-137.1,0-249.2-111.6-249.2-248.7c0-131,102.2-238.6,229.9-248v315.3
	c0,11.3,9.1,20.4,20.4,20.4s20.4-9.1,20.4-20.4v-315C658.4,243.3,757.3,350,757.3,479.6C757.3,616.7,646.2,728.3,509.1,728.3z"/>
</svg>
